<?xml version="1.0" encoding="utf-8"?>
<!-- Generator: $$$/GeneralStr/196=Adobe Illustrator 27.6.0, SVG Export Plug-In . SVG Version: 6.00 Build 0)  -->
<svg version="1.1" id="Ebene_1" xmlns="http://www.w3.org/2000/svg" xmlns:xlink="http://www.w3.org/1999/xlink" x="0px" y="0px"
	 viewBox="0 0 738 407.3" style="enable-background:new 0 0 738 407.3;" xml:space="preserve">
<style type="text/css">
	.st0{fill:#FFFFFF;}
	.st1{opacity:0.4;fill:#FFFFFF;enable-background:new    ;}
	.st2{opacity:0.3;fill:#FFFFFF;enable-background:new    ;}
	.st3{opacity:0.75;fill:#FFFFFF;enable-background:new    ;}
	.st4{opacity:0.7;fill:#FFFFFF;enable-background:new    ;}
	.st5{opacity:0.8;fill:#FFFFFF;enable-background:new    ;}
</style>
<g>
	<g>
		<g>
			<path class="st0" d="M367.3,221.8v-18.6h2.3v18.6H367.3z"/>
			<path class="st0" d="M390.8,203.2h2.3v18.6h-2l-11-14.5v14.5h-2.3v-18.6h2l11,14.5V203.2z"/>
			<path class="st0" d="M400.2,216.6l2.2-0.7c0.6,2.3,2.7,4.2,5.9,4.2c2.9,0,4.7-1.6,4.7-3.3c0-1.4-0.9-2.1-3.2-3l-4.4-1.5
				c-2.4-0.8-4.1-2.1-4.1-4.4c0-2.7,2.6-5.1,6.6-5.1c3.8,0,6.3,2,7.1,4.5l-2.2,0.7c-0.6-1.9-2.5-3.1-5.1-3.1s-4.1,1.3-4.1,2.8
				c0,1.2,0.7,1.8,2.8,2.5l4.2,1.4c2.9,1,4.8,2.2,4.8,4.8c0,3.2-2.9,5.7-7.2,5.7C403.8,222.2,400.9,219.5,400.2,216.6z"/>
			<path class="st0" d="M435.9,205.3h-6.8v16.5h-2.3v-16.5H420v-2.1h15.9V205.3L435.9,205.3z"/>
			<path class="st0" d="M442.5,221.8v-18.6h2.3v18.6H442.5z"/>
			<path class="st0" d="M467.4,205.3h-6.8v16.5h-2.3v-16.5h-6.8v-2.1h15.9L467.4,205.3L467.4,205.3z"/>
			<path class="st0" d="M486.8,203.2h2.3v11.2c0,4.6-2.8,7.8-7.7,7.8c-4.9,0-7.7-3.1-7.7-7.8v-11.2h2.4v11.1c0,3.3,1.8,5.7,5.3,5.7
				s5.4-2.3,5.4-5.7L486.8,203.2L486.8,203.2z"/>
			<path class="st0" d="M511.5,205.3h-6.8v16.5h-2.3v-16.5h-6.8v-2.1h15.9L511.5,205.3L511.5,205.3z"/>
			<path class="st0" d="M531.3,205.3h-10.9v6h9.5v2h-9.5v6.3h10.8v2.1h-13.1v-18.6h13.2V205.3z"/>
			<path class="st0" d="M563,205.3h-10.6v6.3h9.3v2.1h-9.3v8.1h-2.3v-18.6h13v2.1L563,205.3L563,205.3z"/>
			<path class="st0" d="M568.5,212.5c0-5.5,4.1-9.6,9.6-9.6s9.6,4.2,9.6,9.6c0,5.5-4.1,9.7-9.6,9.7
				C572.7,222.2,568.5,218,568.5,212.5z M585.5,212.5c0-4-2.9-7.4-7.3-7.4c-4.4,0-7.3,3.4-7.3,7.4c0,4.2,2.9,7.6,7.3,7.6
				C582.6,220,585.5,216.6,585.5,212.5z"/>
			<path class="st0" d="M607.4,221.8l-4.8-7.2h-5.2v7.2h-2.3v-18.6h8.7c3.9,0,6,3,6,5.7c0,2.5-1.6,4.9-4.5,5.5l4.9,7.3h-2.8
				L607.4,221.8L607.4,221.8z M597.4,205.3v7.2h6.3c2.4,0,3.8-1.7,3.8-3.6s-1.4-3.6-3.8-3.6L597.4,205.3L597.4,205.3z"/>
		</g>
		<g>
			<path class="st0" d="M311.3,234.3h2.2v18.6h-2.3v-14.6l-6.7,9.5l-6.7-9.5v14.6h-2.3v-18.6h2.2l6.8,9.8L311.3,234.3z"/>
			<path class="st0" d="M333.6,252.9l-1.9-4.9h-9.2l-1.9,4.9h-2.5l7.6-18.6h2.9l7.6,18.6H333.6z M323.3,246h7.5l-3.8-9.4L323.3,246z
				"/>
			<path class="st0" d="M337.7,243.6c0-5.5,4.2-9.6,9.6-9.6c4.5,0,7.7,2.6,8.8,5.7l-2.3,0.6c-0.9-2.3-3.2-4.1-6.5-4.1
				c-4.4,0-7.3,3.4-7.3,7.4c0,4.1,2.9,7.5,7.3,7.5c3.2,0,5.6-1.8,6.5-4l2.2,0.6c-1.1,3.1-4.3,5.6-8.7,5.6
				C341.9,253.3,337.7,249.1,337.7,243.6z"/>
			<path class="st0" d="M374.3,234.3h2.3v18.6h-2.3v-8.4h-10.5v8.4h-2.3v-18.6h2.3v8.1h10.5V234.3z"/>
			<path class="st0" d="M384.8,252.9v-18.6h2.3v18.6H384.8z"/>
			<path class="st0" d="M408.3,234.3h2.3v18.6h-2l-11-14.5v14.5h-2.3v-18.6h2l11,14.5V234.3z"/>
			<path class="st0" d="M432,236.4h-10.9v6h9.5v2h-9.5v6.3H432v2.1h-13.1v-18.5h13.2v2.1L432,236.4L432,236.4z"/>
			<path class="st0" d="M453.1,250.8h10.2v2.2h-12.5v-18.7h2.3V250.8z"/>
			<path class="st0" d="M483.4,236.4h-10.9v6h9.5v2h-9.5v6.3h10.9v2.1h-13.2v-18.5h13.2V236.4z"/>
			<path class="st0" d="M504.9,252.9L503,248h-9.2l-1.9,4.9h-2.5l7.6-18.6h2.9l7.6,18.6H504.9z M494.6,246h7.5l-3.8-9.4L494.6,246z"
				/>
			<path class="st0" d="M526.2,252.9l-4.8-7.2h-5.2v7.2h-2.3v-18.6h8.7c3.9,0,6,3,6,5.7c0,2.5-1.6,4.9-4.5,5.5l4.9,7.3h-2.8
				L526.2,252.9L526.2,252.9z M516.2,236.4v7.2h6.3c2.4,0,3.8-1.7,3.8-3.6s-1.4-3.6-3.8-3.6L516.2,236.4L516.2,236.4z"/>
			<path class="st0" d="M549.2,234.3h2.3v18.6h-2l-11-14.5v14.5h-2.3v-18.6h2l11,14.5V234.3z"/>
			<path class="st0" d="M559.7,252.9v-18.6h2.3v18.6H559.7z"/>
			<path class="st0" d="M583.2,234.3h2.3v18.6h-2l-11-14.5v14.5h-2.3v-18.6h2l11,14.5V234.3z"/>
			<path class="st0" d="M610.1,244.2c0,5.7-4,9-9.3,9c-5.6,0-9.8-4.2-9.8-9.7s4.2-9.6,9.7-9.6c4.3,0,7.5,2.4,8.8,5.5l-2.2,0.6
				c-1-2.3-3.2-3.9-6.5-3.9c-4.4,0-7.3,3.4-7.3,7.4c0,4.1,2.9,7.5,7.5,7.5c3.9,0,6.6-2.4,6.8-6.1h-7.1v-2h9.4L610.1,244.2
				L610.1,244.2z"/>
		</g>
		<g>
			<path class="st0" d="M364.7,284.8l-1.9-4.9h-9.2l-1.9,4.9h-2.5l7.6-18.6h2.9l7.6,18.6H364.7z M354.4,277.9h7.5l-3.8-9.4
				L354.4,277.9z"/>
			<path class="st0" d="M386.7,266.2h2.3v18.6h-2l-11-14.5v14.5h-2.3v-18.6h2l11,14.5V266.2z"/>
			<path class="st0" d="M404.4,266.2c5.7,0,9.1,4,9.1,9.3c0,5.4-3.4,9.3-9.1,9.3h-7.2v-18.6L404.4,266.2L404.4,266.2z M404.4,282.7
				c4.3,0,6.8-3.1,6.8-7.2c0-4-2.5-7.1-6.8-7.1h-4.9v14.4L404.4,282.7L404.4,282.7z"/>
			<path class="st0" d="M445.8,284.8l-1.9-4.9h-9.2l-1.9,4.9h-2.6l7.6-18.6h2.9l7.6,18.6H445.8z M435.5,277.9h7.5l-3.8-9.4
				L435.5,277.9z"/>
			<path class="st0" d="M467.1,284.8l-4.8-7.2h-5.2v7.2h-2.3v-18.6h8.7c3.9,0,6,3,6,5.7c0,2.5-1.6,4.9-4.5,5.5l4.9,7.3h-2.8
				L467.1,284.8L467.1,284.8z M457.1,268.3v7.2h6.3c2.4,0,3.8-1.7,3.8-3.6s-1.4-3.6-3.8-3.6H457.1z"/>
			<path class="st0" d="M491.4,268.4h-6.8v16.5h-2.3v-16.5h-6.8v-2.1h15.9L491.4,268.4L491.4,268.4z"/>
			<path class="st0" d="M498.1,284.8v-18.6h2.3v18.6H498.1z"/>
			<path class="st0" d="M522.6,268.4H512v6.3h9.3v2.1H512v8.1h-2.3v-18.6h13v2.1H522.6z"/>
			<path class="st0" d="M529.3,284.8v-18.6h2.3v18.6H529.3z"/>
			<path class="st0" d="M538.9,275.5c0-5.5,4.2-9.6,9.6-9.6c4.5,0,7.7,2.6,8.8,5.7l-2.3,0.6c-0.9-2.3-3.2-4.1-6.5-4.1
				c-4.4,0-7.3,3.4-7.3,7.4c0,4.1,2.9,7.5,7.3,7.5c3.2,0,5.6-1.8,6.5-4l2.2,0.6c-1.1,3.1-4.3,5.6-8.7,5.6
				C543,285.2,538.9,281,538.9,275.5z"/>
			<path class="st0" d="M564.6,284.8v-18.6h2.3v18.6H564.6z"/>
			<path class="st0" d="M589,284.8l-1.9-4.9h-9.2l-1.9,4.9h-2.5l7.6-18.6h2.9l7.6,18.6H589z M578.7,277.9h7.5l-3.8-9.4L578.7,277.9z
				"/>
			<path class="st0" d="M600.3,282.7h10.2v2.2H598v-18.6h2.3V282.7z"/>
		</g>
		<g>
			<path class="st0" d="M375.7,316.8v-18.6h2.3v18.6H375.7z"/>
			<path class="st0" d="M399.2,298.1h2.3v18.6h-2l-11-14.5v14.5h-2.3v-18.6h2l11,14.5V298.1z"/>
			<path class="st0" d="M424.1,300.3h-6.8v16.5H415v-16.5h-6.8v-2.1h15.9V300.3z"/>
			<path class="st0" d="M443.9,300.3H433v6h9.5v2H433v6.3h10.9v2.1h-13.1v-18.6H444v2.2H443.9z"/>
			<path class="st0" d="M453.9,314.6h10.2v2.2h-12.5v-18.6h2.3V314.6z"/>
			<path class="st0" d="M473.3,314.6h10.2v2.2H471v-18.6h2.3V314.6z"/>
			<path class="st0" d="M491.4,316.8v-18.6h2.3v18.6H491.4z"/>
			<path class="st0" d="M520.1,308.1c0,5.7-4,9-9.3,9c-5.6,0-9.8-4.2-9.8-9.7s4.2-9.6,9.7-9.6c4.3,0,7.5,2.4,8.8,5.5l-2.2,0.6
				c-1-2.3-3.2-3.9-6.5-3.9c-4.4,0-7.3,3.4-7.3,7.4c0,4.1,2.9,7.5,7.5,7.5c3.9,0,6.6-2.4,6.8-6.1h-7.1v-2h9.4V308.1z"/>
			<path class="st0" d="M540.6,300.3h-10.9v6h9.5v2h-9.5v6.3h10.9v2.1h-13.1v-18.6h13.2v2.2H540.6z"/>
			<path class="st0" d="M561.3,298.1h2.3v18.6h-2l-11-14.5v14.5h-2.4v-18.6h2l11,14.5L561.3,298.1L561.3,298.1z"/>
			<path class="st0" d="M570.9,307.4c0-5.5,4.2-9.6,9.6-9.6c4.5,0,7.7,2.6,8.8,5.7l-2.3,0.6c-0.9-2.3-3.2-4.1-6.5-4.1
				c-4.4,0-7.3,3.4-7.3,7.4c0,4.1,2.9,7.5,7.3,7.5c3.2,0,5.6-1.8,6.5-4l2.2,0.6c-1.1,3.1-4.3,5.6-8.7,5.6
				C575,317.1,570.9,312.9,570.9,307.4z"/>
			<path class="st0" d="M609.8,300.3h-10.9v6h9.5v2h-9.5v6.3h10.9v2.1h-13.1v-18.6h13.2v2.2H609.8z"/>
		</g>
	</g>
</g>
<polygon class="st1" points="135.6,244.7 191.4,203.3 135.6,162 "/>
<polygon class="st2" points="135.6,327.4 191.4,286.1 135.6,244.7 "/>
<polygon class="st3" points="191.4,286.1 247.2,244.7 191.4,203.3 "/>
<polygon class="st4" points="79.9,203.3 135.6,244.7 135.6,162 "/>
<polygon class="st2" points="79.9,203.3 135.6,162 79.9,120.6 "/>
<polygon class="st5" points="79.9,120.6 135.6,162 135.6,79.2 "/>
<polygon class="st4" points="79.9,286.1 135.6,327.4 135.6,244.7 "/>
<g>
	<polygon class="st0" points="249.1,145.3 243.9,159.8 192,159.8 192,79.9 206.8,79.9 206.8,145.3 	"/>
	<g>
		<path class="st0" d="M301.2,79.9h-19.3l-29.4,79.9h15.4l6.3-17.8h34.6l6.3,17.8h15.3L301.2,79.9z M279.2,128.5l12.4-33.9
			l12.4,33.9H279.2z"/>
	</g>
	<g>
		<path class="st0" d="M406.2,79.9H421v79.9h-15.6v-53.1l-25.7,35.2l-25.6-35.2v53.1h-15.6V79.9h14.8l26.5,37.9L406.2,79.9z"/>
	</g>
	<g>
		<path class="st0" d="M565.4,159.8l-17.8-28.4h-16.4v28.4h-14.7V79.9h37.3c16.6,0,26.1,13.3,26.1,25.9c0,10.3-5.9,20.3-16.8,24.1
			l19.1,30h-16.8L565.4,159.8L565.4,159.8z M531.2,93.7V118h21.7c7.8,0,12.7-5.6,12.7-12.1s-5-12.1-12.1-12.1L531.2,93.7L531.2,93.7
			z"/>
		<path class="st0" d="M642.9,159.8l-17.2-28.4h-16.4v28.4h-14.7V79.9h37.3c16.6,0,26.1,13.3,26.1,25.9c0,10.3-5.9,20.3-16.8,24.1
			l19.6,30L642.9,159.8z M609.3,93.7V118H631c7.8,0,12.7-5.6,12.7-12.1s-5-12.1-12.1-12.1L609.3,93.7L609.3,93.7z"/>
	</g>
</g>
<g>
	<path class="st0" d="M477.2,79.9h-19.3l-29.4,79.9h15.4l6.3-17.8h34.6l6.3,17.8h15.3L477.2,79.9z M455.2,128.5l12.4-33.9l12.4,33.9
		H455.2z"/>
</g>
<rect x="643.8" y="202.9" class="st3" width="14.3" height="113.9"/>
</svg>
