<?xml version="1.0" encoding="utf-8"?>
<!-- Generator: $$$/GeneralStr/196=Adobe Illustrator 27.6.0, SVG Export Plug-In . SVG Version: 6.00 Build 0)  -->
<svg version="1.1" id="Ebene_1" xmlns="http://www.w3.org/2000/svg" xmlns:xlink="http://www.w3.org/1999/xlink" x="0px" y="0px"
	 viewBox="0 0 738 407.3" style="enable-background:new 0 0 738 407.3;" xml:space="preserve">
<style type="text/css">
	.st0{fill:#009EE3;}
	.st1{fill:#FFFFFF;}
	.st2{fill:#59BDF7;}
	.st3{fill:#E82E82;}
	.st4{fill:#983082;}
</style>
<g>
	<rect x="643.9" y="202.4" class="st0" width="14.3" height="113.9"/>
	<g>
		<g>
			<path class="st1" d="M367.3,221.4v-18.6h2.3v18.6H367.3z"/>
			<path class="st1" d="M390.8,202.8h2.3v18.6h-2l-11-14.5v14.5h-2.3v-18.6h2l11,14.5V202.8z"/>
			<path class="st1" d="M400.3,216.1l2.2-0.7c0.6,2.3,2.7,4.2,5.9,4.2c2.9,0,4.7-1.6,4.7-3.3c0-1.4-0.9-2.1-3.2-3l-4.4-1.5
				c-2.4-0.8-4.1-2.1-4.1-4.4c0-2.7,2.6-5.1,6.6-5.1c3.8,0,6.3,2,7.1,4.5l-2.2,0.7c-0.6-1.9-2.5-3.1-5.1-3.1s-4.1,1.3-4.1,2.8
				c0,1.2,0.7,1.8,2.8,2.5l4.2,1.4c2.9,1,4.8,2.2,4.8,4.8c0,3.2-2.9,5.7-7.2,5.7C403.9,221.7,401,219.1,400.3,216.1z"/>
			<path class="st1" d="M436,204.9h-6.8v16.5h-2.3v-16.5h-6.8v-2.1H436V204.9L436,204.9z"/>
			<path class="st1" d="M442.6,221.4v-18.6h2.3v18.6H442.6z"/>
			<path class="st1" d="M467.4,204.9h-6.8v16.5h-2.3v-16.5h-6.8v-2.1h15.9L467.4,204.9L467.4,204.9z"/>
			<path class="st1" d="M486.9,202.8h2.3V214c0,4.6-2.8,7.8-7.7,7.8c-4.9,0-7.7-3.1-7.7-7.8v-11.2h2.4v11.1c0,3.3,1.8,5.7,5.3,5.7
				s5.4-2.3,5.4-5.7L486.9,202.8L486.9,202.8z"/>
			<path class="st1" d="M511.5,204.9h-6.8v16.5h-2.3v-16.5h-6.8v-2.1h15.9L511.5,204.9L511.5,204.9z"/>
			<path class="st1" d="M531.3,204.9h-10.9v6h9.5v2h-9.5v6.3h10.9v2.1h-13.1v-18.6h13.2L531.3,204.9L531.3,204.9z"/>
			<path class="st1" d="M563.1,204.9h-10.6v6.3h9.3v2.1h-9.3v8.1h-2.4v-18.6h13V204.9z"/>
			<path class="st1" d="M568.6,212.1c0-5.5,4.1-9.6,9.6-9.6s9.6,4.2,9.6,9.6c0,5.5-4.1,9.7-9.6,9.7
				C572.7,221.7,568.6,217.6,568.6,212.1z M585.5,212c0-4-2.9-7.4-7.3-7.4c-4.4,0-7.3,3.4-7.3,7.4c0,4.2,2.9,7.6,7.3,7.6
				S585.5,216.2,585.5,212z"/>
			<path class="st1" d="M607.5,221.4l-4.8-7.2h-5.2v7.2h-2.3v-18.6h8.7c3.9,0,6,3,6,5.7c0,2.5-1.6,4.9-4.5,5.5l4.9,7.3h-2.8
				L607.5,221.4L607.5,221.4z M597.5,204.9v7.2h6.3c2.4,0,3.8-1.7,3.8-3.6c0-1.9-1.4-3.6-3.8-3.6L597.5,204.9L597.5,204.9z"/>
		</g>
		<g>
			<path class="st1" d="M311.4,233.9h2.2v18.6h-2.3v-14.6l-6.7,9.5l-6.7-9.5v14.6h-2.3v-18.6h2.2l6.8,9.8L311.4,233.9z"/>
			<path class="st1" d="M333.7,252.5l-1.9-4.9h-9.2l-1.9,4.9h-2.6l7.6-18.6h2.9l7.6,18.6H333.7z M323.3,245.6h7.5l-3.8-9.4
				L323.3,245.6z"/>
			<path class="st1" d="M337.8,243.2c0-5.5,4.2-9.6,9.6-9.6c4.5,0,7.7,2.6,8.8,5.7l-2.3,0.6c-0.9-2.3-3.2-4.1-6.5-4.1
				c-4.4,0-7.3,3.4-7.3,7.4c0,4.1,2.9,7.5,7.3,7.5c3.2,0,5.6-1.8,6.5-4l2.2,0.6c-1.1,3.1-4.3,5.6-8.7,5.6
				C342,252.8,337.8,248.7,337.8,243.2z"/>
			<path class="st1" d="M374.4,233.9h2.3v18.6h-2.3v-8.4h-10.5v8.4h-2.3v-18.6h2.3v8.1h10.5V233.9z"/>
			<path class="st1" d="M384.9,252.5v-18.6h2.3v18.6H384.9z"/>
			<path class="st1" d="M408.4,233.9h2.3v18.6h-2l-11-14.5v14.5h-2.3v-18.6h2l11,14.5V233.9z"/>
			<path class="st1" d="M432.1,236h-10.9v6h9.5v2h-9.5v6.3h10.9v2.1H419v-18.6h13.1V236z"/>
			<path class="st1" d="M453.2,250.3h10.2v2.2h-12.5v-18.6h2.3V250.3z"/>
			<path class="st1" d="M483.5,236h-10.9v6h9.5v2h-9.5v6.3h10.9v2.1h-13.1v-18.6h13.2v2.2H483.5z"/>
			<path class="st1" d="M505,252.5l-1.9-4.9h-9.2l-1.9,4.9h-2.5l7.6-18.6h2.9l7.6,18.6H505z M494.7,245.6h7.5l-3.8-9.4L494.7,245.6z
				"/>
			<path class="st1" d="M526.3,252.5l-4.8-7.2h-5.2v7.2H514v-18.6h8.7c3.9,0,6,3,6,5.7c0,2.5-1.6,4.9-4.5,5.5l4.9,7.3h-2.8
				L526.3,252.5L526.3,252.5z M516.3,236v7.2h6.3c2.4,0,3.8-1.7,3.8-3.6s-1.4-3.6-3.8-3.6L516.3,236L516.3,236z"/>
			<path class="st1" d="M549.3,233.9h2.3v18.6h-2l-11-14.5v14.5h-2.3v-18.6h2l11,14.5V233.9z"/>
			<path class="st1" d="M559.8,252.5v-18.6h2.3v18.6H559.8z"/>
			<path class="st1" d="M583.3,233.9h2.3v18.6h-2l-11-14.5v14.5h-2.3v-18.6h2l11,14.5V233.9z"/>
			<path class="st1" d="M610.2,243.8c0,5.7-4,9-9.3,9c-5.6,0-9.8-4.2-9.8-9.7s4.2-9.6,9.7-9.6c4.3,0,7.5,2.4,8.8,5.5l-2.2,0.6
				c-1-2.3-3.2-3.9-6.5-3.9c-4.4,0-7.3,3.4-7.3,7.4c0,4.1,2.9,7.5,7.5,7.5c3.9,0,6.6-2.4,6.8-6.1h-7.1v-2h9.4L610.2,243.8
				L610.2,243.8z"/>
		</g>
		<g>
			<path class="st1" d="M364.8,284.4l-1.9-4.9h-9.2l-1.9,4.9h-2.5l7.6-18.6h2.9l7.6,18.6H364.8z M354.5,277.5h7.5l-3.8-9.4
				L354.5,277.5z"/>
			<path class="st1" d="M386.8,265.8h2.3v18.6h-2l-11-14.5v14.5h-2.3v-18.6h2l11,14.5V265.8z"/>
			<path class="st1" d="M404.5,265.8c5.7,0,9.1,4,9.1,9.3c0,5.4-3.4,9.3-9.1,9.3h-7.2v-18.6L404.5,265.8L404.5,265.8z M404.5,282.3
				c4.3,0,6.8-3.1,6.8-7.2c0-4-2.5-7.1-6.8-7.1h-4.9v14.3L404.5,282.3L404.5,282.3z"/>
			<path class="st1" d="M445.9,284.4l-1.9-4.9h-9.2l-1.9,4.9h-2.5l7.6-18.6h2.9l7.6,18.6H445.9z M435.6,277.5h7.5l-3.8-9.4
				L435.6,277.5z"/>
			<path class="st1" d="M467.2,284.4l-4.8-7.2h-5.2v7.2h-2.3v-18.6h8.7c3.9,0,6,3,6,5.7c0,2.5-1.6,4.9-4.5,5.5l4.9,7.3h-2.8
				L467.2,284.4L467.2,284.4z M457.2,267.9v7.2h6.3c2.4,0,3.8-1.7,3.8-3.6s-1.4-3.6-3.8-3.6H457.2z"/>
			<path class="st1" d="M491.5,267.9h-6.8v16.5h-2.3v-16.5h-6.8v-2.1h15.9L491.5,267.9L491.5,267.9z"/>
			<path class="st1" d="M498.1,284.4v-18.6h2.3v18.6H498.1z"/>
			<path class="st1" d="M522.6,267.9H512v6.3h9.3v2.1H512v8.1h-2.3v-18.6h13v2.1H522.6z"/>
			<path class="st1" d="M529.3,284.4v-18.6h2.3v18.6H529.3z"/>
			<path class="st1" d="M539,275.1c0-5.5,4.2-9.6,9.6-9.6c4.5,0,7.7,2.6,8.8,5.7l-2.3,0.6c-0.9-2.3-3.2-4.1-6.5-4.1
				c-4.4,0-7.3,3.4-7.3,7.4c0,4.1,2.9,7.5,7.3,7.5c3.2,0,5.6-1.8,6.5-4l2.2,0.6c-1.1,3.1-4.3,5.6-8.7,5.6
				C543.1,284.8,539,280.6,539,275.1z"/>
			<path class="st1" d="M564.7,284.4v-18.6h2.3v18.6H564.7z"/>
			<path class="st1" d="M589,284.4l-1.9-4.9h-9.2l-1.9,4.9h-2.5l7.6-18.6h2.9l7.6,18.6H589z M578.7,277.5h7.5l-3.8-9.4L578.7,277.5z
				"/>
			<path class="st1" d="M600.4,282.3h10.2v2.2h-12.5v-18.6h2.3V282.3z"/>
		</g>
		<g>
			<path class="st1" d="M375.8,316.3v-18.6h2.3v18.6H375.8z"/>
			<path class="st1" d="M399.3,297.7h2.3v18.6h-2l-11-14.5v14.5h-2.3v-18.6h2l11,14.5V297.7z"/>
			<path class="st1" d="M424.2,299.9h-6.8v16.4h-2.3v-16.5h-6.8v-2.1h15.9L424.2,299.9L424.2,299.9z"/>
			<path class="st1" d="M444,299.9h-10.9v6h9.5v2h-9.5v6.3H444v2.1h-13.1v-18.6h13.2v2.2H444z"/>
			<path class="st1" d="M454,314.2h10.1v2.2h-12.5v-18.6h2.3v16.4H454z"/>
			<path class="st1" d="M473.4,314.2h10.2v2.2h-12.5v-18.6h2.3V314.2z"/>
			<path class="st1" d="M491.5,316.3v-18.6h2.3v18.6H491.5z"/>
			<path class="st1" d="M520.2,307.6c0,5.7-4,9-9.3,9c-5.6,0-9.8-4.2-9.8-9.7s4.2-9.6,9.7-9.6c4.3,0,7.5,2.4,8.8,5.5l-2.2,0.6
				c-1-2.3-3.2-3.9-6.5-3.9c-4.4,0-7.3,3.4-7.3,7.4c0,4.1,2.9,7.5,7.5,7.5c3.9,0,6.6-2.4,6.8-6.1h-7.1v-2h9.4V307.6L520.2,307.6z"/>
			<path class="st1" d="M540.7,299.9h-10.9v6h9.5v2h-9.5v6.3h10.9v2.1h-13.1v-18.6h13.2v2.2H540.7z"/>
			<path class="st1" d="M561.3,297.7h2.3v18.6h-2l-11-14.5v14.5h-2.3v-18.6h2l11,14.5V297.7z"/>
			<path class="st1" d="M571,307c0-5.5,4.2-9.6,9.6-9.6c4.5,0,7.7,2.6,8.8,5.7l-2.3,0.6c-0.9-2.3-3.2-4.1-6.5-4.1
				c-4.4,0-7.3,3.4-7.3,7.4c0,4.1,2.9,7.5,7.3,7.5c3.2,0,5.6-1.8,6.5-4l2.2,0.6c-1.1,3.1-4.3,5.6-8.7,5.6
				C575.1,316.7,571,312.5,571,307z"/>
			<path class="st1" d="M609.9,299.9H599v6h9.5v2H599v6.3h10.9v2.1h-13.1v-18.6H610L609.9,299.9L609.9,299.9z"/>
		</g>
	</g>
</g>
<polygon class="st2" points="135.7,244.3 191.5,202.9 135.7,161.5 "/>
<polygon class="st3" points="135.7,327 191.5,285.6 135.7,244.3 "/>
<polygon class="st0" points="191.5,285.6 247.3,244.3 191.5,202.9 "/>
<polygon class="st0" points="79.9,202.9 135.7,244.3 135.7,161.5 "/>
<polygon class="st3" points="79.9,202.9 135.7,161.5 79.9,120.2 "/>
<polygon class="st4" points="79.9,120.2 135.7,161.5 135.7,78.8 "/>
<polygon class="st0" points="79.9,285.6 135.7,327 135.7,244.3 "/>
<g>
	<polygon class="st1" points="249.2,144.9 244,159.4 192,159.4 192,79.5 206.9,79.5 206.9,144.9 	"/>
	<g>
		<path class="st1" d="M301.3,79.5H282l-29.4,79.9H268l6.3-17.8h34.6l6.3,17.8h15.3L301.3,79.5z M279.3,128.1l12.4-33.9l12.4,33.9
			H279.3z"/>
	</g>
	<g>
		<path class="st1" d="M406.3,79.5h14.8v79.9h-15.6v-53.1l-25.7,35.2l-25.7-35.2v53.1h-15.6V79.5h14.8l26.5,37.9L406.3,79.5z"/>
	</g>
	<g>
		<path class="st1" d="M565.5,159.4L547.7,131h-16.4v28.4h-14.7V79.5h37.3c16.6,0,26.1,13.3,26.1,25.9c0,10.3-5.9,20.3-16.8,24.1
			l19.1,30L565.5,159.4L565.5,159.4z M531.3,93.2v24.3H553c7.8,0,12.7-5.6,12.7-12.1s-5-12.1-12.1-12.1L531.3,93.2L531.3,93.2z"/>
		<path class="st1" d="M643,159.4L625.8,131h-16.4v28.4h-14.7V79.5H632c16.6,0,26.1,13.3,26.1,25.9c0,10.3-5.9,20.3-16.8,24.1
			l19.6,30L643,159.4z M609.4,93.2v24.3h21.7c7.8,0,12.7-5.6,12.7-12.1s-5-12.1-12.1-12.1L609.4,93.2L609.4,93.2z"/>
	</g>
</g>
<g>
	<path class="st1" d="M477.3,79.5H458l-29.4,79.9H444l6.3-17.8h34.6l6.3,17.8h15.3L477.3,79.5z M455.3,128.1l12.4-33.9l12.4,33.9
		H455.3z"/>
</g>
</svg>
